<?xml version="1.0"?>
<svg xmlns="http://www.w3.org/2000/svg" xmlns:xlink="http://www.w3.org/1999/xlink" width="178.073" height="177.926px" viewBox="10.76 10.751 178.073 177.926" enable-background="new 10.76 10.751 178.073 177.926">
<g id="Layer_1_2_">
	<path fill="#7E0E09" d="M100,172.861c40.209,0,73.002-32.767,73.002-72.941c0-40.174-32.793-72.941-73.002-72.941
		c-40.206,0-73,32.767-73,72.941C27,140.096,59.794,172.861,100,172.861z"/>
	<g>
		<path fill="none" d="M100,172.861c40.209,0,73.002-32.767,73.002-72.941c0-40.174-32.793-72.941-73.002-72.941
			c-40.206,0-73,32.767-73,72.941C27,140.096,59.794,172.861,100,172.861z"/>
	</g>
	<path fill="#F5F21F" stroke="#F5F21F" stroke-width="3.000000e-004" stroke-miterlimit="22.9256" d="M100,99.922V29.754
		L84.252,78.156L100,99.922z"/>
	<path fill="#F5F21F" stroke="#F5F21F" stroke-width="3.000000e-004" stroke-miterlimit="22.9256" d="M100,99.922l66.857-21.781
		l-51.103,0.01L100,99.922z"/>
	<path fill="#F5F21F" stroke="#F5F21F" stroke-width="3.000000e-004" stroke-miterlimit="22.9256" d="M125.627,108.139L100,99.922
		l41.262,56.748L125.627,108.139z"/>
	<path fill="#F5F21F" stroke="#F5F21F" stroke-width="3.000000e-004" stroke-miterlimit="22.9256" d="M100.012,126.701L100,99.922
		l-41.297,56.754L100.012,126.701z"/>
	<path fill="#F5F21F" stroke="#F5F21F" stroke-width="3.000000e-004" stroke-miterlimit="22.9256" d="M100,99.922l-66.892-21.76
		l41.312,30.004L100,99.922z"/>
	<path fill="#CCAA1B" stroke="#FFF6BF" stroke-width="3.000000e-004" stroke-miterlimit="22.9256" d="M100,99.922V29.754
		l15.756,48.396L100,99.922z"/>
	<path fill="#CCAA2C" stroke="#F5D815" stroke-width="3.000000e-004" stroke-miterlimit="22.9256" d="M100,99.922l-66.892-21.76
		l51.144-0.004L100,99.922z"/>
	<path fill="#CCAA2C" stroke="#F5D815" stroke-width="3.000000e-004" stroke-miterlimit="22.9256" d="M74.42,108.166L100,99.922
		l-41.297,56.754L74.42,108.166z"/>
	<path fill="#CCAA2C" stroke="#F5D815" stroke-width="3.000000e-004" stroke-miterlimit="22.9256" d="M100.012,126.701L100,99.922
		l41.262,56.748L100.012,126.701z"/>
	<path fill="#CCAA2C" stroke="#F5D815" stroke-width="3.000000e-004" stroke-miterlimit="22.9256" d="M100,99.922l66.857-21.781
		l-41.23,29.998L100,99.922z"/>
	<path fill="#CCAA2C" stroke="#F5D815" stroke-width="3.000000e-004" stroke-miterlimit="22.9256" d="M101,99.922l66.857-21.781
		l-41.23,29.998L101,99.922z"/>
	<path fill="#FFFFFF" d="M109.52,99.926c0-5.247-4.26-9.503-9.512-9.503c-5.253,0-9.512,4.256-9.512,9.503
		c0,5.248,4.259,9.504,9.512,9.504C105.26,109.43,109.52,105.174,109.52,99.926z M100.008,91.988c4.387,0,7.943,3.555,7.943,7.938
		s-3.557,7.936-7.943,7.936c-4.386,0-7.943-3.553-7.943-7.936S95.622,91.988,100.008,91.988z"/>
	<path fill="#FFFFFF" d="M100.008,83.266c9.205,0,16.674,7.461,16.674,16.66c0,9.199-7.469,16.66-16.674,16.66
		c-9.207,0-16.673-7.461-16.673-16.66C83.334,90.727,90.801,83.266,100.008,83.266z M118.254,99.926
		c0-10.066-8.17-18.232-18.246-18.232c-10.076,0-18.247,8.166-18.247,18.232c0,10.068,8.171,18.232,18.247,18.232
		C110.084,118.158,118.254,109.994,118.254,99.926z"/>
	<path fill="#FFFFFF" d="M100.008,74.52c14.041,0,25.428,11.378,25.428,25.406c0,14.029-11.387,25.406-25.428,25.406
		c-14.039,0-25.427-11.377-25.427-25.406C74.581,85.897,85.967,74.52,100.008,74.52z M127.008,99.926
		c0-14.896-12.09-26.979-27-26.979c-14.908,0-26.999,12.083-26.999,26.979c0,14.898,12.091,26.979,26.999,26.979
		C114.918,126.904,127.008,114.824,127.008,99.926z"/>
	<path fill="#FFFFFF" d="M134.174,99.926c0,18.852-15.301,34.139-34.166,34.139c-18.867,0-34.167-15.287-34.167-34.139
		c0-18.85,15.3-34.139,34.167-34.139C118.873,65.787,134.174,81.076,134.174,99.926z M135.748,99.926
		c0-19.719-16.004-35.709-35.74-35.709c-19.734,0-35.739,15.99-35.739,35.709s16.004,35.711,35.739,35.711
		C119.744,135.637,135.748,119.645,135.748,99.926z"/>
	<path fill="#FFFFFF" d="M142.912,99.926c0,23.672-19.213,42.871-42.904,42.871c-23.691,0-42.905-19.199-42.905-42.871
		c0-23.673,19.213-42.869,42.905-42.869C123.7,57.057,142.912,76.253,142.912,99.926z M100.008,144.363
		c24.559,0,44.475-19.9,44.475-44.438c0-24.538-19.916-44.438-44.475-44.438c-24.558,0-44.474,19.899-44.474,44.438
		C55.534,124.463,75.449,144.363,100.008,144.363z"/>
</g>
<path fill="#7E0E09" d="M172.764,139.803c0,0-1.588,3.047-2.56,4.469l-0.972,1.523c0,0,2.602-2.13,3.519-2.788
	c0.919-0.657,4.847-3.138,5.356-4.052l1.174-1.014c0,0-2.561,5.078-3.25,5.839c0,0-4.576,6.804-10.529,6.936
	c0,0-3.578,4.772-5.313,6.089c0,0,3.924-1.92,5.4-2.373s6.568-1.606,8.811-2.718c0,0-4.03,3.699-5,4.356
	c-0.969,0.658-6.428,5.424-12.02,3.572c0,0-5.052,4.41-5.663,4.562c0,0,2.648-0.704,7.99-0.938c5.344-0.238,5.495,0.068,5.495,0.068
	s-6.473,3.438-8.661,3.583c-1.985,0.757-6.261,0.996-8.698-0.437l-2.143,1.299l-0.604-1.104l3.262-1.72c0,0-0.701-3.563,1.955-6.71
	c2.656-3.145,3.469-2.803,5.258-5.408c0,0-0.016,4.814-2.829,9.182c0,0,4.848-3.851,4.95-4.153c0,0-2.027-2.146,1.857-8.339
	c3.481-5.992,3.53-5.637,3.53-5.637s1.058,3.717-1.255,9.766l4.242-5.379c0,0-1.621-2.448-0.129-7.022c0,0,2.668-6.604,3.026-7.569
	c0,0,0.695,4.885,0.795,5.599c0,0,0.499,2.749-0.319,4.477c0,0,2.556-3.858,3.174-5.739c0,0-2.896-2.35-0.756-10.432
	c2.141-8.083,1.162-4.881,1.162-4.881s1.853,8.962,1.184,11.352c0,0,1.129-2.846,1.492-4.932c0,0-2.189-4.997,4.183-13.521
	c0,0-0.192,7.53-0.503,8.496c0,0-0.111,2.95-3.068,5.078c0,0-1.188,5.594-1.699,6.405c0,0,2.761-4.267,3.832-5.483
	c1.074-1.218,3.475-4.211,3.475-4.211s-1.232,3.813-1.389,4.32C180.374,130.72,178.313,138.803,172.764,139.803
	c0,0-1.588,3.047-2.56,4.469"/>
<circle fill="none" cx="100" cy="99.922" r="74.839"/>
<path fill="#7E0E09" d="M28.031,139.803c0,0,1.587,3.047,2.559,4.469l0.972,1.523c0,0-2.602-2.13-3.519-2.788
	c-0.919-0.657-4.846-3.138-5.357-4.052l-1.173-1.014c0,0,2.561,5.078,3.25,5.839c0,0,4.576,6.804,10.529,6.936
	c0,0,3.578,4.772,5.312,6.089c0,0-3.924-1.92-5.4-2.373s-6.568-1.606-8.811-2.718c0,0,4.031,3.699,5.001,4.356
	c0.968,0.658,6.428,5.424,12.019,3.572c0,0,5.052,4.41,5.663,4.562c0,0-2.648-0.704-7.99-0.938
	c-5.344-0.238-5.495,0.068-5.495,0.068s6.473,3.438,8.661,3.583c1.986,0.757,6.261,0.996,8.698-0.437l2.143,1.299l0.604-1.104
	l-3.262-1.72c0,0,0.701-3.563-1.955-6.71c-2.656-3.145-3.469-2.803-5.258-5.408c0,0,0.016,4.814,2.829,9.182
	c0,0-4.848-3.851-4.95-4.153c0,0,2.027-2.146-1.858-8.339c-3.481-5.992-3.53-5.637-3.53-5.637s-1.057,3.717,1.255,9.766
	l-4.242-5.379c0,0,1.62-2.448,0.129-7.022c0,0-2.668-6.604-3.027-7.569c0,0-0.695,4.885-0.795,5.599c0,0-0.499,2.749,0.32,4.477
	c0,0-2.556-3.858-3.174-5.739c0,0,2.895-2.35,0.755-10.432c-2.14-8.083-1.162-4.881-1.162-4.881s-1.852,8.962-1.183,11.352
	c0,0-1.129-2.846-1.492-4.932c0,0,2.189-4.997-4.183-13.521c0,0,0.193,7.53,0.503,8.496c0,0,0.111,2.95,3.068,5.078
	c0,0,1.189,5.594,1.7,6.405c0,0-2.761-4.267-3.833-5.483c-1.073-1.218-3.474-4.211-3.474-4.211s1.233,3.813,1.388,4.32
	C20.42,130.72,22.482,138.803,28.031,139.803c0,0,1.587,3.047,2.559,4.469"/>
<g>
	<circle fill="none" cx="100" cy="99.922" r="74.839"/>
	<path fill="#7D1416" d="M20.479,110.568l3.279-0.414c0.639-0.081,1.038-0.159,1.197-0.235s0.279-0.19,0.36-0.344
		c0.081-0.152,0.098-0.416,0.05-0.79l0.323-0.042l0.532,4.206l-0.322,0.041c-0.049-0.383-0.132-0.636-0.251-0.759
		c-0.119-0.124-0.263-0.202-0.433-0.237c-0.169-0.033-0.575-0.011-1.214,0.07l-7.673,0.97c-0.64,0.081-1.039,0.159-1.198,0.234
		c-0.158,0.076-0.278,0.19-0.359,0.341c-0.082,0.151-0.099,0.415-0.051,0.794l-0.322,0.04l-0.457-3.606
		c-0.15-1.188,0.044-2.078,0.583-2.673c0.54-0.593,1.263-0.947,2.17-1.061c0.767-0.098,1.445-0.014,2.033,0.25
		c0.589,0.265,1.019,0.679,1.291,1.239C20.207,108.97,20.36,109.629,20.479,110.568z M14.689,111.3l5.109-0.646
		c-0.005-0.136-0.012-0.239-0.021-0.308c-0.063-0.496-0.321-0.852-0.777-1.067c-0.456-0.216-1.125-0.267-2.009-0.155
		c-0.877,0.11-1.503,0.327-1.876,0.646c-0.373,0.32-0.526,0.746-0.458,1.279L14.689,111.3z"/>
	<path fill="#7D1416" d="M13.13,102.323c-0.105-1.327,0.421-2.421,1.577-3.282c1.155-0.86,2.618-1.314,4.387-1.36
		c1.511-0.039,2.849,0.236,4.013,0.826c1.544,0.779,2.335,1.918,2.375,3.414c0.04,1.501-0.657,2.681-2.088,3.538
		c-1.131,0.679-2.484,1.037-4.061,1.079c-1.769,0.046-3.254-0.338-4.457-1.149C13.674,104.575,13.092,103.555,13.13,102.323z
		 M13.69,102.233c0.02,0.763,0.592,1.329,1.715,1.698c0.922,0.299,2.238,0.427,3.949,0.383c2.032-0.053,3.528-0.341,4.488-0.867
		c0.67-0.366,0.998-0.862,0.981-1.49c-0.011-0.423-0.167-0.771-0.467-1.047c-0.384-0.351-0.99-0.616-1.818-0.795
		c-0.829-0.18-1.905-0.253-3.229-0.219c-1.576,0.042-2.751,0.175-3.528,0.4c-0.776,0.225-1.322,0.5-1.636,0.828
		C13.832,101.449,13.68,101.82,13.69,102.233z"/>
	<path fill="#7D1416" d="M21.531,90.062l4.147,0.635l-0.572,7.386l-0.325-0.024l0.021-0.277c0.019-0.24-0.027-0.439-0.139-0.597
		c-0.074-0.112-0.208-0.205-0.401-0.277c-0.137-0.056-0.503-0.106-1.1-0.153l-7.816-0.605c-0.608-0.047-0.989-0.054-1.145-0.021
		c-0.155,0.033-0.295,0.113-0.419,0.242c-0.125,0.128-0.196,0.309-0.214,0.542l-0.021,0.276l-0.324-0.025l0.343-4.435l0.325,0.024
		l-0.028,0.362c-0.018,0.241,0.028,0.44,0.139,0.597c0.074,0.113,0.207,0.207,0.401,0.284c0.137,0.056,0.503,0.106,1.099,0.153
		l7.571,0.587c0.608,0.047,0.997,0.052,1.167,0.016c0.17-0.036,0.302-0.123,0.395-0.26c0.061-0.098,0.106-0.344,0.136-0.736
		l0.054-0.692c0.035-0.442-0.048-0.819-0.247-1.131c-0.199-0.312-0.53-0.593-0.993-0.845s-1.153-0.51-2.073-0.774L21.531,90.062z"/>
	<path fill="#7D1416" d="M15.123,81.518l0.321,0.053c0.007,0.279,0.086,0.507,0.236,0.681c0.209,0.243,0.819,0.67,1.829,1.284
		l3.967,2.481l2.845,0.466c0.606,0.1,0.988,0.139,1.143,0.118s0.299-0.087,0.434-0.2c0.134-0.112,0.219-0.279,0.255-0.497
		l0.076-0.462l0.321,0.053l-0.755,4.621l-0.321-0.053l0.071-0.432c0.04-0.243,0.01-0.445-0.088-0.606
		c-0.064-0.118-0.189-0.224-0.376-0.316c-0.132-0.067-0.492-0.149-1.082-0.246l-2.359-0.386l-5.356,1.112
		c-1.058,0.222-1.688,0.397-1.89,0.526c-0.202,0.129-0.328,0.324-0.376,0.587l-0.321-0.053l0.646-3.946l0.321,0.053l-0.029,0.176
		c-0.039,0.239-0.017,0.414,0.065,0.525c0.083,0.11,0.179,0.175,0.289,0.192c0.208,0.034,0.758-0.042,1.649-0.229l4.138-0.851
		l-3.305-2.062c-0.807-0.51-1.352-0.788-1.635-0.835c-0.156-0.025-0.295,0.006-0.416,0.095c-0.167,0.113-0.296,0.353-0.385,0.716
		l-0.321-0.053L15.123,81.518z"/>
	<path fill="#7D1416" d="M17.221,73.742l3.115,0.838l-0.058,0.214c-0.753-0.066-1.307-0.064-1.663,0.005
		c-0.356,0.07-0.664,0.215-0.923,0.435c-0.142,0.123-0.264,0.372-0.365,0.748l-0.162,0.601l8.878,2.389
		c0.588,0.158,0.962,0.235,1.121,0.229c0.16-0.006,0.313-0.061,0.459-0.163c0.146-0.103,0.249-0.27,0.311-0.499l0.073-0.268
		l0.314,0.085l-1.135,4.218l-0.314-0.084l0.072-0.269c0.063-0.233,0.054-0.438-0.026-0.612c-0.051-0.123-0.166-0.241-0.342-0.353
		c-0.124-0.08-0.475-0.198-1.052-0.354l-8.877-2.389l-0.157,0.582c-0.146,0.543-0.088,0.98,0.174,1.315
		c0.366,0.468,0.96,0.861,1.785,1.181l-0.061,0.226l-3.115-0.838L17.221,73.742z"/>
	<path fill="#7D1416" d="M19.167,70.396l4.542,1.707l0.059-0.155c0.186-0.495,0.098-0.938-0.262-1.327
		c-0.36-0.39-0.963-0.778-1.806-1.165l0.082-0.219l5.841,2.195l-0.083,0.219c-0.653-0.193-1.21-0.292-1.672-0.297
		c-0.462-0.005-0.8,0.064-1.013,0.208c-0.213,0.143-0.39,0.401-0.53,0.773l3.143,1.181c0.614,0.231,0.997,0.354,1.148,0.37
		c0.15,0.015,0.289-0.012,0.414-0.078c0.125-0.067,0.23-0.212,0.314-0.435l0.175-0.467c0.274-0.729,0.252-1.404-0.064-2.025
		c-0.317-0.621-0.934-1.213-1.849-1.776l0.081-0.213l3.413,1.684l-2.537,6.75l-0.304-0.114l0.098-0.259
		c0.085-0.227,0.096-0.431,0.032-0.612c-0.039-0.129-0.142-0.255-0.308-0.379c-0.116-0.092-0.453-0.243-1.012-0.453l-7.339-2.759
		c-0.505-0.189-0.818-0.295-0.941-0.319c-0.206-0.034-0.381-0.019-0.524,0.045c-0.208,0.089-0.36,0.26-0.456,0.513l-0.098,0.26
		l-0.304-0.114l2.457-6.537l3.299,1.24l-0.082,0.219c-0.849-0.191-1.486-0.253-1.913-0.183c-0.427,0.069-0.792,0.257-1.095,0.564
		c-0.179,0.178-0.38,0.563-0.603,1.153L19.167,70.396z"/>
	<path fill="#7D1416" d="M23.735,57.877l3.7,1.836l-0.106,0.214c-1.046-0.317-1.936-0.383-2.668-0.196
		c-0.733,0.186-1.238,0.558-1.516,1.116c-0.231,0.466-0.251,0.99-0.062,1.569c0.19,0.579,0.551,1.113,1.081,1.6
		c0.678,0.625,1.502,1.178,2.474,1.659c0.955,0.475,1.867,0.821,2.736,1.042c0.869,0.22,1.593,0.249,2.173,0.089
		c0.581-0.161,1.013-0.528,1.297-1.102c0.233-0.47,0.3-0.974,0.2-1.512c-0.1-0.536-0.402-1.2-0.906-1.99l0.921,0.456
		c0.417,0.729,0.653,1.39,0.709,1.982c0.056,0.594-0.066,1.193-0.368,1.8c-0.395,0.797-0.975,1.393-1.739,1.785
		c-0.763,0.393-1.657,0.545-2.679,0.457c-1.022-0.089-2.017-0.373-2.982-0.851c-1.019-0.506-1.892-1.171-2.62-1.997
		c-0.729-0.826-1.188-1.681-1.377-2.564c-0.19-0.884-0.108-1.682,0.246-2.396c0.26-0.524,0.698-0.999,1.313-1.422
		c0.356-0.244,0.557-0.412,0.603-0.505c0.059-0.117,0.047-0.249-0.034-0.397c-0.08-0.147-0.248-0.301-0.502-0.459L23.735,57.877z"/>
	<path fill="#7D1416" d="M31.359,57.771l3.108,1.991c0.514,0.329,0.847,0.515,1,0.558c0.154,0.042,0.315,0.036,0.486-0.019
		c0.17-0.054,0.319-0.179,0.445-0.376l0.149-0.233l0.274,0.176l-2.354,3.673l-0.273-0.176l0.149-0.232
		c0.131-0.204,0.184-0.401,0.16-0.592c-0.011-0.134-0.085-0.279-0.222-0.436c-0.094-0.113-0.392-0.332-0.896-0.654l-6.6-4.23
		c-0.513-0.329-0.846-0.516-0.999-0.56c-0.153-0.044-0.314-0.039-0.484,0.015c-0.17,0.054-0.319,0.18-0.444,0.376l-0.15,0.233
		l-0.274-0.176l2.354-3.672l0.273,0.175l-0.149,0.233c-0.131,0.204-0.184,0.401-0.16,0.592c0.012,0.135,0.084,0.281,0.219,0.44
		c0.094,0.113,0.393,0.332,0.896,0.654l2.842,1.821l1.59-2.481l-2.841-1.821c-0.513-0.328-0.846-0.515-0.999-0.56
		c-0.153-0.044-0.314-0.038-0.486,0.018s-0.32,0.182-0.446,0.379l-0.146,0.229l-0.274-0.176l2.351-3.668l0.274,0.176l-0.146,0.229
		c-0.133,0.207-0.187,0.404-0.161,0.592c0.012,0.134,0.085,0.28,0.219,0.439c0.094,0.113,0.393,0.332,0.896,0.654l6.601,4.23
		c0.513,0.329,0.846,0.516,0.999,0.56c0.152,0.044,0.314,0.039,0.486-0.017c0.171-0.057,0.32-0.183,0.446-0.38l0.146-0.228
		l0.274,0.176l-2.35,3.667l-0.274-0.176l0.146-0.228c0.133-0.207,0.187-0.404,0.16-0.592c-0.011-0.134-0.084-0.28-0.219-0.439
		c-0.094-0.114-0.393-0.332-0.896-0.655l-3.108-1.992L31.359,57.771z"/>
	<path fill="#7D1416" d="M31.597,46.608l8.336,1.44l-3.987-3.219c-0.556-0.448-0.978-0.696-1.264-0.743
		c-0.388-0.061-0.723,0.094-1.005,0.462l-0.253-0.204l1.732-2.146l0.253,0.204c-0.171,0.315-0.255,0.552-0.251,0.711
		c0.003,0.158,0.074,0.336,0.212,0.535c0.137,0.197,0.425,0.474,0.862,0.826l7.721,6.234l-0.132,0.162l-11.265-1.844l5.895,4.759
		c0.533,0.432,0.962,0.637,1.287,0.617c0.325-0.021,0.576-0.141,0.753-0.36l0.124-0.153l0.253,0.204l-1.859,2.303l-0.253-0.204
		c0.285-0.361,0.381-0.695,0.289-1.001c-0.092-0.306-0.384-0.658-0.876-1.056l-6.545-5.283l-0.357-0.061
		c-0.357-0.061-0.617-0.07-0.78-0.027s-0.329,0.159-0.497,0.349l-0.253-0.203L31.597,46.608z"/>
	<path fill="#7D1416" d="M46.827,46.823l0.237,0.223l-2.994,3.172l-0.237-0.223l0.19-0.201c0.167-0.177,0.255-0.36,0.267-0.552
		c0.014-0.134-0.032-0.29-0.138-0.469c-0.071-0.129-0.324-0.399-0.758-0.81l-5.702-5.381c-0.443-0.418-0.735-0.663-0.877-0.734
		c-0.142-0.072-0.302-0.097-0.479-0.076c-0.177,0.022-0.345,0.117-0.506,0.287l-0.189,0.201l-0.237-0.223l2.994-3.172l0.237,0.223
		l-0.19,0.201c-0.167,0.177-0.255,0.36-0.267,0.552c-0.014,0.134,0.031,0.292,0.133,0.474c0.071,0.129,0.325,0.398,0.759,0.809
		l5.702,5.381c0.443,0.419,0.736,0.663,0.879,0.733c0.143,0.07,0.303,0.095,0.481,0.073c0.177-0.021,0.345-0.117,0.506-0.287
		L46.827,46.823z"/>
	<path fill="#7D1416" d="M44.389,32.933l2.777,3.059l-0.178,0.161c-0.858-0.677-1.663-1.063-2.413-1.157s-1.356,0.068-1.818,0.487
		c-0.386,0.351-0.595,0.83-0.63,1.438c-0.034,0.609,0.106,1.237,0.422,1.884c0.404,0.829,0.97,1.646,1.698,2.447
		c0.717,0.79,1.439,1.445,2.168,1.967c0.728,0.521,1.392,0.813,1.991,0.875s1.135-0.123,1.609-0.552
		c0.389-0.354,0.635-0.799,0.737-1.335c0.104-0.536,0.064-1.265-0.117-2.185l0.69,0.762c0.123,0.831,0.102,1.532-0.063,2.104
		c-0.165,0.573-0.497,1.086-0.998,1.541c-0.66,0.599-1.416,0.941-2.271,1.028s-1.741-0.097-2.661-0.551
		c-0.919-0.455-1.742-1.082-2.467-1.88c-0.765-0.842-1.335-1.779-1.711-2.814c-0.377-1.035-0.493-1.998-0.348-2.89
		c0.146-0.893,0.513-1.605,1.103-2.142c0.434-0.394,1.015-0.676,1.742-0.845c0.421-0.098,0.669-0.181,0.745-0.25
		c0.097-0.088,0.135-0.216,0.114-0.383c-0.021-0.166-0.122-0.37-0.301-0.61L44.389,32.933z"/>
	<path fill="#7D1416" d="M47.251,30.974l3.543-2.447l0.186,0.268l-0.177,0.122c-0.267,0.184-0.422,0.351-0.467,0.498
		c-0.045,0.148-0.04,0.308,0.015,0.477c0.055,0.169,0.275,0.532,0.662,1.092l3.317,4.802c0.606,0.877,1.055,1.426,1.344,1.646
		c0.289,0.221,0.605,0.352,0.948,0.393s0.675-0.051,1-0.274c0.371-0.256,0.605-0.595,0.702-1.014
		c0.096-0.419,0.065-0.884-0.095-1.393s-0.6-1.284-1.319-2.325l-2.763-3.999c-0.303-0.438-0.552-0.729-0.746-0.873
		c-0.194-0.145-0.365-0.219-0.513-0.224c-0.228-0.006-0.48,0.087-0.758,0.278l-0.185-0.268l2.374-1.641l0.184,0.268l-0.142,0.099
		c-0.191,0.133-0.313,0.299-0.365,0.498c-0.052,0.2-0.03,0.431,0.066,0.691c0.063,0.185,0.232,0.477,0.509,0.877l2.573,3.724
		c0.796,1.153,1.318,2.021,1.564,2.605c0.248,0.584,0.313,1.233,0.198,1.946c-0.115,0.714-0.529,1.316-1.241,1.809
		c-0.594,0.41-1.131,0.614-1.611,0.611c-0.655-0.003-1.24-0.183-1.756-0.539c-0.515-0.355-1.055-0.94-1.618-1.756l-3.317-4.801
		c-0.39-0.564-0.654-0.899-0.793-1.007s-0.29-0.164-0.455-0.172c-0.165-0.008-0.391,0.092-0.678,0.298L47.251,30.974z"/>
	<path fill="#7D1416" d="M57.266,24.455l7.155,4.515l-2.456-4.498c-0.342-0.627-0.637-1.018-0.884-1.17
		c-0.336-0.203-0.705-0.189-1.105,0.043l-0.156-0.285l2.419-1.32l0.156,0.285c-0.279,0.226-0.447,0.412-0.504,0.561
		c-0.057,0.147-0.06,0.34-0.008,0.575c0.051,0.235,0.212,0.6,0.481,1.094l4.756,8.709l-0.184,0.101l-9.707-6.006l3.63,6.649
		c0.329,0.603,0.647,0.956,0.954,1.062c0.308,0.105,0.586,0.091,0.835-0.045l0.172-0.094l0.156,0.285l-2.598,1.418l-0.156-0.285
		c0.401-0.226,0.617-0.497,0.649-0.815c0.032-0.317-0.104-0.754-0.407-1.31l-4.031-7.383l-0.308-0.192
		c-0.306-0.193-0.542-0.301-0.709-0.323s-0.364,0.021-0.593,0.133l-0.156-0.285L57.266,24.455z"/>
	<path fill="#7D1416" d="M71.251,30.476l0.133,0.298l-3.979,1.785l-0.134-0.296l0.252-0.113c0.221-0.099,0.374-0.235,0.458-0.408
		c0.063-0.118,0.081-0.28,0.052-0.485c-0.017-0.146-0.147-0.492-0.393-1.038l-3.211-7.151c-0.25-0.557-0.426-0.895-0.53-1.016
		c-0.104-0.12-0.241-0.205-0.414-0.252c-0.172-0.048-0.364-0.024-0.578,0.071l-0.252,0.113l-0.133-0.296l3.979-1.787l0.133,0.297
		l-0.252,0.113c-0.221,0.099-0.373,0.234-0.457,0.407c-0.064,0.119-0.083,0.281-0.057,0.488c0.016,0.147,0.147,0.493,0.392,1.038
		l3.211,7.152c0.25,0.556,0.427,0.894,0.533,1.014c0.105,0.119,0.245,0.203,0.417,0.251s0.365,0.024,0.578-0.071L71.251,30.476z"/>
	<path fill="#7D1416" d="M74.97,16.769l0.11,0.307c-0.262,0.168-0.439,0.478-0.531,0.927c-0.063,0.334-0.072,1.068-0.028,2.204
		l0.363,9.541l-0.191,0.068l-5.885-7.957c-0.709-0.96-1.152-1.514-1.33-1.662c-0.177-0.147-0.427-0.192-0.75-0.133l-0.11-0.307
		l3.766-1.347l0.109,0.307l-0.127,0.045c-0.34,0.122-0.55,0.266-0.63,0.431c-0.06,0.115-0.061,0.252-0.003,0.412
		c0.036,0.1,0.093,0.211,0.172,0.335s0.313,0.45,0.703,0.977l3.672,4.986l-0.228-5.528c-0.03-0.668-0.06-1.111-0.09-1.33
		c-0.03-0.22-0.072-0.401-0.123-0.545c-0.059-0.166-0.142-0.301-0.249-0.405c-0.107-0.105-0.232-0.169-0.376-0.192
		c-0.2-0.034-0.437-0.002-0.711,0.096l-0.109-0.307L74.97,16.769z"/>
	<path fill="#7D1416" d="M78.547,16.596l1.166,4.71l0.162-0.04c0.514-0.128,0.829-0.45,0.946-0.968
		c0.117-0.519,0.096-1.234-0.063-2.148l0.227-0.057l1.5,6.058l-0.227,0.056c-0.211-0.647-0.446-1.163-0.703-1.546
		c-0.258-0.382-0.505-0.621-0.745-0.716c-0.239-0.095-0.552-0.095-0.938,0.001l0.807,3.259c0.158,0.637,0.273,1.022,0.346,1.155
		s0.172,0.232,0.298,0.297c0.126,0.065,0.305,0.07,0.536,0.013l0.484-0.12c0.756-0.188,1.3-0.588,1.632-1.201
		s0.471-1.456,0.417-2.53l0.221-0.054l0.546,3.768l-7,1.732l-0.079-0.315l0.269-0.066c0.235-0.059,0.41-0.165,0.523-0.32
		c0.084-0.105,0.129-0.262,0.138-0.469c0.01-0.147-0.057-0.511-0.201-1.091l-1.884-7.61c-0.13-0.523-0.219-0.842-0.268-0.956
		c-0.089-0.189-0.201-0.325-0.335-0.406c-0.191-0.122-0.417-0.15-0.68-0.086l-0.269,0.067l-0.078-0.315l6.778-1.679l0.847,3.422
		l-0.227,0.056c-0.322-0.808-0.633-1.367-0.932-1.68s-0.661-0.507-1.085-0.582c-0.249-0.047-0.679,0.005-1.292,0.156L78.547,16.596z
		"/>
	<path fill="#7D1416" d="M87.393,20.675l0.473,3.307c0.091,0.638,0.176,1.036,0.254,1.193s0.194,0.275,0.346,0.354
		s0.417,0.091,0.795,0.037l0.046,0.322l-4.227,0.604l-0.046-0.322c0.381-0.054,0.633-0.142,0.754-0.263
		c0.122-0.121,0.198-0.267,0.23-0.438c0.032-0.169,0.002-0.573-0.089-1.212l-1.094-7.657c-0.091-0.637-0.176-1.035-0.254-1.193
		c-0.078-0.157-0.193-0.275-0.346-0.354c-0.151-0.08-0.417-0.092-0.795-0.038l-0.046-0.321l3.837-0.549
		c0.999-0.143,1.744-0.148,2.235-0.017c0.491,0.131,0.921,0.441,1.289,0.931c0.369,0.488,0.604,1.09,0.706,1.803
		c0.124,0.87,0.008,1.621-0.35,2.252c-0.229,0.4-0.583,0.725-1.06,0.977l2.556,3.711c0.333,0.479,0.564,0.774,0.692,0.887
		c0.192,0.155,0.399,0.227,0.621,0.213l0.046,0.322l-2.601,0.37l-3.429-4.996L87.393,20.675z M86.567,14.89l0.738,5.168l0.347-0.05
		c0.564-0.081,0.976-0.215,1.235-0.403c0.259-0.188,0.441-0.485,0.547-0.895c0.105-0.408,0.113-0.923,0.025-1.544
		c-0.129-0.898-0.371-1.542-0.727-1.93c-0.355-0.387-0.86-0.533-1.514-0.44L86.567,14.89z"/>
	<path fill="#7D1416" d="M99.038,12.909l0.22,3.967l-0.252,0.01c-0.157-0.99-0.479-1.779-0.968-2.367
		c-0.488-0.589-1.003-0.873-1.544-0.852c-0.418,0.016-0.743,0.188-0.975,0.517c-0.232,0.328-0.339,0.7-0.324,1.115
		c0.01,0.264,0.062,0.497,0.156,0.698c0.129,0.271,0.33,0.536,0.603,0.795c0.2,0.186,0.657,0.512,1.374,0.977
		c1.001,0.647,1.684,1.27,2.047,1.865c0.359,0.597,0.554,1.287,0.584,2.071c0.038,0.996-0.201,1.862-0.717,2.6
		c-0.515,0.739-1.191,1.124-2.027,1.155c-0.262,0.011-0.511-0.019-0.748-0.086c-0.237-0.066-0.535-0.199-0.896-0.396
		c-0.201-0.109-0.365-0.162-0.493-0.157c-0.106,0.004-0.217,0.067-0.332,0.189c-0.114,0.121-0.204,0.304-0.268,0.546l-0.227,0.009
		l-0.172-4.496l0.228-0.009c0.228,1.258,0.612,2.209,1.153,2.854c0.539,0.645,1.106,0.956,1.701,0.934
		c0.458-0.018,0.817-0.21,1.077-0.578c0.259-0.367,0.379-0.788,0.361-1.263c-0.011-0.28-0.074-0.551-0.188-0.811
		c-0.115-0.26-0.283-0.504-0.505-0.733c-0.222-0.229-0.611-0.522-1.167-0.883c-0.779-0.504-1.341-0.937-1.687-1.299
		c-0.347-0.361-0.617-0.771-0.813-1.227s-0.305-0.962-0.326-1.518c-0.036-0.949,0.177-1.766,0.639-2.452
		c0.462-0.687,1.064-1.044,1.806-1.071c0.271-0.011,0.535,0.026,0.792,0.11c0.195,0.063,0.435,0.184,0.719,0.363
		c0.284,0.181,0.481,0.268,0.592,0.264c0.106-0.004,0.188-0.054,0.247-0.15c0.058-0.096,0.107-0.323,0.146-0.683L99.038,12.909z"/>
	<path fill="#7D1416" d="M104.033,24.848l-0.002,0.326l-4.362-0.042l0.003-0.326l0.277,0.003c0.242,0.002,0.437-0.058,0.585-0.179
		c0.107-0.081,0.191-0.222,0.25-0.42c0.047-0.14,0.072-0.509,0.078-1.106l0.076-7.84c0.006-0.608-0.013-0.99-0.057-1.143
		c-0.043-0.153-0.133-0.287-0.27-0.402c-0.136-0.116-0.322-0.175-0.555-0.177l-0.277-0.003l0.003-0.325l4.362,0.042l-0.004,0.325
		l-0.276-0.003c-0.243-0.002-0.437,0.058-0.586,0.179c-0.107,0.082-0.193,0.221-0.257,0.42c-0.047,0.14-0.072,0.509-0.078,1.106
		l-0.075,7.84c-0.006,0.609,0.013,0.99,0.06,1.144c0.045,0.152,0.136,0.286,0.272,0.402c0.137,0.115,0.321,0.174,0.556,0.177
		L104.033,24.848z"/>
	<path fill="#7D1416" d="M112.307,13.996l-0.314,3.21l-0.221-0.021c-0.059-0.753-0.15-1.299-0.276-1.639
		c-0.128-0.339-0.321-0.618-0.579-0.838c-0.146-0.121-0.412-0.199-0.799-0.238l-0.619-0.061l-0.898,9.149
		c-0.061,0.607-0.074,0.988-0.041,1.145c0.031,0.156,0.109,0.298,0.236,0.425c0.125,0.127,0.307,0.202,0.543,0.226l0.275,0.027
		l-0.031,0.323l-4.347-0.427l0.032-0.323l0.273,0.026c0.242,0.024,0.441-0.018,0.601-0.126c0.114-0.071,0.212-0.203,0.292-0.396
		c0.059-0.135,0.117-0.501,0.176-1.096l0.898-9.149l-0.6-0.059c-0.561-0.056-0.982,0.074-1.268,0.388
		c-0.403,0.438-0.693,1.089-0.873,1.955l-0.232-0.023l0.315-3.21L112.307,13.996z"/>
	<path fill="#7D1416" d="M121.492,15.777l-0.063,0.318c-0.28-0.003-0.51,0.068-0.689,0.212c-0.249,0.2-0.698,0.795-1.348,1.782
		l-2.622,3.875l-0.566,2.826c-0.121,0.604-0.174,0.983-0.16,1.139c0.015,0.155,0.076,0.302,0.186,0.44
		c0.107,0.138,0.27,0.229,0.488,0.272l0.457,0.092l-0.063,0.319l-4.591-0.921l0.064-0.318l0.429,0.086
		c0.241,0.048,0.444,0.026,0.609-0.066c0.12-0.06,0.23-0.181,0.33-0.364c0.071-0.129,0.167-0.486,0.284-1.072l0.47-2.345
		l-0.92-5.392c-0.185-1.064-0.337-1.701-0.459-1.908c-0.122-0.206-0.313-0.339-0.573-0.397l0.064-0.318l3.922,0.786l-0.064,0.319
		l-0.175-0.035c-0.238-0.048-0.413-0.032-0.528,0.047c-0.113,0.079-0.182,0.173-0.203,0.282c-0.042,0.207,0.016,0.758,0.17,1.656
		l0.702,4.166l2.178-3.229c0.54-0.789,0.837-1.324,0.894-1.605c0.031-0.155,0.005-0.295-0.078-0.419
		c-0.108-0.171-0.344-0.308-0.703-0.41l0.063-0.318L121.492,15.777z"/>
	<path fill="#7D1416" d="M128.196,17.715c1.279,0.364,2.122,1.238,2.526,2.622c0.403,1.383,0.318,2.912-0.256,4.586
		c-0.49,1.43-1.215,2.588-2.172,3.474c-1.27,1.175-2.612,1.52-4.029,1.034c-1.42-0.486-2.283-1.55-2.587-3.19
		c-0.241-1.297-0.106-2.69,0.405-4.182c0.572-1.674,1.449-2.933,2.629-3.776C125.895,17.438,127.055,17.25,128.196,17.715z
		 M128.083,18.271c-0.722-0.247-1.452,0.092-2.188,1.016c-0.603,0.76-1.182,1.949-1.736,3.567c-0.659,1.924-0.909,3.427-0.752,4.509
		c0.109,0.756,0.462,1.235,1.056,1.439c0.399,0.137,0.78,0.112,1.144-0.073c0.462-0.237,0.923-0.713,1.381-1.427
		c0.455-0.714,0.899-1.697,1.328-2.949c0.512-1.491,0.797-2.64,0.856-3.446s-0.009-1.414-0.205-1.822
		C128.77,18.677,128.476,18.405,128.083,18.271z"/>
	<path fill="#7D1416" d="M135.639,21.589l-2.047,4.447l0.219,0.1c0.335,0.154,0.643,0.209,0.921,0.163s0.568-0.206,0.872-0.479
		c0.305-0.272,0.612-0.689,0.925-1.249l0.195,0.091l-2.502,5.437l-0.196-0.09c0.402-1.06,0.521-1.826,0.357-2.298
		c-0.164-0.473-0.445-0.801-0.845-0.984l-0.218-0.101l-1.524,3.313c-0.255,0.554-0.394,0.91-0.413,1.067
		c-0.021,0.158,0.007,0.318,0.084,0.479c0.076,0.161,0.222,0.291,0.434,0.389l0.25,0.116l-0.135,0.295l-3.963-1.823l0.137-0.296
		l0.252,0.115c0.22,0.102,0.422,0.127,0.607,0.077c0.131-0.03,0.264-0.123,0.4-0.28c0.1-0.109,0.273-0.436,0.523-0.978l3.279-7.122
		c0.254-0.554,0.393-0.909,0.415-1.066s-0.005-0.316-0.081-0.478c-0.077-0.161-0.222-0.29-0.434-0.389l-0.252-0.115l0.137-0.296
		l6.393,2.942L138,25.685l-0.229-0.105c0.283-0.753,0.398-1.354,0.346-1.805s-0.248-0.84-0.588-1.171
		c-0.188-0.184-0.582-0.413-1.186-0.69L135.639,21.589z"/>
	<path fill="#7D1416" d="M147.966,27.552l-1.664,2.762l-0.19-0.114c0.271-0.704,0.424-1.238,0.455-1.599
		c0.03-0.361-0.023-0.696-0.163-1.006c-0.079-0.171-0.286-0.357-0.62-0.559l-0.531-0.32l-4.746,7.874
		c-0.314,0.521-0.49,0.86-0.529,1.015c-0.037,0.154-0.028,0.316,0.031,0.485c0.059,0.169,0.189,0.314,0.395,0.438l0.236,0.143
		l-0.168,0.279l-3.742-2.255l0.169-0.279l0.236,0.144c0.208,0.125,0.406,0.173,0.597,0.144c0.133-0.016,0.277-0.093,0.433-0.231
		c0.111-0.098,0.321-0.401,0.63-0.913l4.746-7.874l-0.516-0.312c-0.482-0.29-0.92-0.354-1.313-0.195
		c-0.551,0.223-1.093,0.686-1.627,1.39l-0.201-0.121l1.665-2.762L147.966,27.552z"/>
	<path fill="#7D1416" d="M147.385,34.763l-2.225,2.945c-0.368,0.486-0.578,0.806-0.633,0.955s-0.061,0.312-0.021,0.486
		c0.042,0.174,0.155,0.331,0.342,0.472l0.221,0.167l-0.195,0.26l-3.48-2.63l0.195-0.259l0.222,0.166
		c0.192,0.146,0.386,0.215,0.577,0.205c0.135-0.001,0.285-0.063,0.451-0.188c0.121-0.086,0.361-0.366,0.722-0.843l4.726-6.256
		c0.367-0.486,0.578-0.804,0.635-0.952c0.057-0.149,0.063-0.311,0.023-0.484c-0.042-0.174-0.155-0.331-0.342-0.472l-0.221-0.167
		l0.196-0.26l3.48,2.629l-0.196,0.26l-0.221-0.167c-0.193-0.146-0.387-0.214-0.578-0.205c-0.135,0.001-0.287,0.063-0.456,0.185
		c-0.12,0.085-0.361,0.366-0.722,0.843l-2.033,2.693l2.351,1.776l2.034-2.693c0.367-0.486,0.578-0.804,0.635-0.952
		s0.063-0.311,0.021-0.486c-0.043-0.175-0.157-0.333-0.343-0.474l-0.217-0.163l0.197-0.26l3.475,2.626l-0.197,0.259l-0.215-0.163
		c-0.195-0.148-0.389-0.217-0.577-0.205c-0.136,0.001-0.286,0.063-0.456,0.185c-0.121,0.085-0.361,0.366-0.722,0.843l-4.726,6.255
		c-0.367,0.487-0.578,0.805-0.635,0.953c-0.055,0.148-0.063,0.311-0.02,0.486c0.042,0.175,0.156,0.333,0.343,0.475l0.217,0.162
		l-0.196,0.26l-3.476-2.626l0.195-0.259l0.217,0.162c0.196,0.149,0.39,0.217,0.577,0.205c0.134-0.001,0.285-0.063,0.455-0.185
		c0.121-0.084,0.361-0.365,0.722-0.842l2.226-2.945L147.385,34.763z"/>
	<path fill="#7D1416" d="M158.191,36.521l-3.311,3.546l0.121,0.113c0.387,0.361,0.828,0.449,1.326,0.265s1.087-0.592,1.767-1.225
		l0.172,0.16l-4.261,4.561l-0.17-0.159c0.428-0.53,0.732-1.009,0.913-1.434c0.181-0.424,0.245-0.763,0.194-1.015
		s-0.223-0.514-0.514-0.785l-2.29,2.454c-0.448,0.479-0.708,0.786-0.78,0.92c-0.07,0.133-0.1,0.271-0.086,0.412
		s0.107,0.293,0.281,0.456l0.365,0.34c0.568,0.531,1.201,0.77,1.896,0.714c0.695-0.057,1.477-0.4,2.348-1.031l0.166,0.155
		l-2.859,2.513l-5.271-4.922l0.222-0.238l0.203,0.189c0.178,0.165,0.361,0.254,0.554,0.265c0.134,0.013,0.288-0.034,0.467-0.141
		c0.129-0.072,0.397-0.326,0.806-0.764l5.351-5.729c0.368-0.394,0.587-0.643,0.655-0.747c0.11-0.178,0.162-0.345,0.158-0.502
		c-0.002-0.227-0.103-0.432-0.3-0.616l-0.202-0.189l0.222-0.237l5.103,4.766l-2.404,2.576l-0.172-0.16
		c0.502-0.71,0.801-1.275,0.9-1.697c0.098-0.421,0.064-0.83-0.105-1.228c-0.095-0.233-0.373-0.565-0.836-0.997L158.191,36.521z"/>
	<path fill="#7D1416" d="M161.088,47.918l-2.526,2.131c-0.493,0.415-0.784,0.698-0.876,0.848c-0.092,0.15-0.131,0.312-0.115,0.484
		c0.016,0.172,0.145,0.402,0.388,0.691l-0.249,0.209l-2.732-3.24l0.248-0.21c0.248,0.295,0.456,0.462,0.623,0.501
		s0.33,0.026,0.492-0.036c0.161-0.064,0.488-0.304,0.981-0.719l5.912-4.987c0.493-0.415,0.785-0.698,0.877-0.849
		c0.091-0.149,0.13-0.31,0.116-0.48s-0.143-0.402-0.389-0.694l0.248-0.209l2.344,2.779c0.772,0.915,1.094,1.769,0.963,2.561
		c-0.129,0.79-0.543,1.48-1.242,2.07c-0.592,0.498-1.206,0.797-1.844,0.895s-1.223-0.015-1.756-0.337
		C162.187,49.111,161.698,48.643,161.088,47.918z M165.549,44.155l-3.937,3.321c0.078,0.11,0.14,0.192,0.185,0.246
		c0.322,0.382,0.734,0.54,1.233,0.474c0.499-0.067,1.089-0.388,1.769-0.962c0.678-0.571,1.085-1.092,1.225-1.563
		c0.139-0.473,0.035-0.913-0.313-1.324L165.549,44.155z"/>
	<path fill="#7D1416" d="M165.714,53.287l-3.046,2.086c-0.503,0.344-0.804,0.579-0.902,0.703c-0.1,0.125-0.157,0.277-0.174,0.455
		c-0.016,0.178,0.041,0.363,0.174,0.556l0.156,0.229l-0.27,0.184l-2.463-3.599l0.268-0.184l0.156,0.229
		c0.137,0.199,0.298,0.326,0.482,0.378c0.129,0.042,0.291,0.03,0.487-0.035c0.142-0.042,0.458-0.232,0.952-0.57l6.469-4.43
		c0.502-0.345,0.803-0.579,0.904-0.702c0.1-0.123,0.158-0.274,0.174-0.451c0.018-0.178-0.041-0.364-0.172-0.557l-0.157-0.229
		l0.269-0.184l2.465,3.599l-0.27,0.184l-0.156-0.229c-0.136-0.199-0.297-0.325-0.482-0.378c-0.127-0.041-0.291-0.031-0.49,0.03
		c-0.142,0.043-0.459,0.232-0.951,0.57l-2.784,1.907l1.665,2.432l2.784-1.907c0.503-0.345,0.805-0.578,0.905-0.701
		c0.1-0.124,0.156-0.275,0.172-0.455c0.018-0.18-0.042-0.366-0.174-0.559l-0.153-0.224l0.269-0.184l2.461,3.594l-0.268,0.184
		l-0.154-0.224c-0.139-0.203-0.299-0.328-0.482-0.378c-0.128-0.041-0.291-0.031-0.49,0.03c-0.143,0.043-0.457,0.232-0.951,0.57
		l-6.469,4.431c-0.503,0.345-0.805,0.578-0.904,0.701c-0.101,0.123-0.158,0.274-0.174,0.455c-0.016,0.179,0.043,0.365,0.176,0.559
		l0.152,0.224l-0.268,0.183l-2.462-3.593l0.269-0.184l0.152,0.223c0.14,0.203,0.301,0.329,0.482,0.378
		c0.129,0.041,0.292,0.032,0.492-0.03c0.141-0.042,0.457-0.232,0.951-0.569l3.045-2.087L165.714,53.287z"/>
	<path fill="#7D1416" d="M166.422,64.645l-0.283,0.161l-2.162-3.788l0.283-0.161l0.137,0.241c0.12,0.21,0.27,0.348,0.449,0.415
		c0.125,0.053,0.287,0.054,0.489,0.005c0.144-0.031,0.478-0.193,0.995-0.49l6.809-3.886c0.529-0.302,0.85-0.511,0.959-0.625
		c0.111-0.115,0.181-0.261,0.212-0.437c0.03-0.176-0.011-0.365-0.127-0.568l-0.138-0.24l0.283-0.161l2.162,3.788l-0.283,0.161
		l-0.137-0.24c-0.12-0.21-0.271-0.349-0.451-0.416c-0.123-0.052-0.287-0.055-0.49-0.01c-0.145,0.03-0.476,0.193-0.996,0.489
		l-6.809,3.887c-0.529,0.302-0.848,0.512-0.956,0.628c-0.11,0.116-0.181,0.263-0.211,0.438s0.011,0.366,0.127,0.568L166.422,64.645z
		"/>
	<path fill="#7D1416" d="M172.999,69.372l-3.909,1.519l-3.19-6.686l0.293-0.14l0.12,0.25c0.104,0.218,0.243,0.367,0.417,0.447
		c0.12,0.062,0.282,0.074,0.486,0.041c0.147-0.021,0.489-0.159,1.029-0.416l7.076-3.376c0.55-0.263,0.884-0.447,1.001-0.554
		c0.119-0.106,0.199-0.246,0.244-0.419c0.043-0.173,0.016-0.365-0.086-0.577l-0.119-0.249l0.293-0.141l1.916,4.015l-0.293,0.141
		l-0.156-0.328c-0.104-0.218-0.244-0.368-0.418-0.448c-0.12-0.061-0.283-0.076-0.49-0.046c-0.146,0.02-0.489,0.158-1.029,0.416
		l-6.852,3.271c-0.551,0.263-0.891,0.451-1.02,0.568c-0.131,0.116-0.201,0.257-0.213,0.422c-0.004,0.115,0.079,0.351,0.249,0.705
		l0.3,0.628c0.19,0.399,0.449,0.685,0.777,0.855s0.756,0.25,1.282,0.237s1.255-0.134,2.183-0.364L172.999,69.372z"/>
	<path fill="#7D1416" d="M170.883,74.74l-0.303,0.118l-1.582-4.065l0.303-0.118l0.1,0.259c0.088,0.226,0.217,0.385,0.384,0.478
		c0.115,0.069,0.276,0.095,0.483,0.076c0.146-0.009,0.499-0.122,1.057-0.339l7.305-2.844c0.568-0.222,0.915-0.381,1.041-0.479
		c0.125-0.097,0.217-0.229,0.273-0.399s0.042-0.363-0.042-0.581l-0.101-0.258l0.303-0.118l1.582,4.065l-0.303,0.118l-0.102-0.259
		c-0.086-0.226-0.214-0.385-0.383-0.478c-0.115-0.069-0.277-0.097-0.484-0.082c-0.148,0.009-0.5,0.122-1.057,0.339l-7.306,2.844
		c-0.567,0.221-0.915,0.381-1.04,0.48c-0.124,0.099-0.215,0.233-0.271,0.403c-0.057,0.169-0.043,0.363,0.043,0.581L170.883,74.74z"
		/>
	<path fill="#7D1416" d="M176.515,75.667l-3.155,0.982c-0.615,0.191-0.995,0.339-1.139,0.441c-0.143,0.103-0.239,0.236-0.293,0.401
		c-0.053,0.164-0.023,0.427,0.09,0.787l-0.312,0.097l-1.262-4.047l0.312-0.097c0.115,0.368,0.241,0.603,0.381,0.702
		c0.138,0.102,0.294,0.153,0.468,0.157c0.173,0.005,0.567-0.089,1.182-0.28l7.385-2.301c0.616-0.191,0.993-0.339,1.138-0.441
		c0.143-0.103,0.24-0.235,0.294-0.398c0.054-0.162,0.024-0.426-0.09-0.79l0.311-0.097l1.081,3.472
		c0.357,1.143,0.322,2.054-0.105,2.732c-0.427,0.679-1.076,1.154-1.948,1.426c-0.739,0.23-1.422,0.267-2.047,0.109
		c-0.626-0.157-1.122-0.488-1.488-0.993C177.063,77.192,176.796,76.571,176.515,75.667z M182.086,73.931l-4.917,1.532
		c0.028,0.133,0.054,0.232,0.075,0.299c0.148,0.478,0.465,0.783,0.951,0.915s1.154,0.065,2.005-0.199
		c0.845-0.263,1.423-0.585,1.733-0.966c0.312-0.38,0.388-0.827,0.227-1.34L182.086,73.931z"/>
	<path fill="#7D1416" d="M178.328,82.381l-3.229,0.703c-0.629,0.138-1.02,0.251-1.171,0.341s-0.261,0.214-0.329,0.374
		c-0.066,0.159-0.061,0.423,0.02,0.792l-0.316,0.069l-0.904-4.142l0.318-0.069c0.082,0.377,0.188,0.621,0.318,0.733
		c0.129,0.112,0.279,0.179,0.451,0.197c0.173,0.02,0.573-0.04,1.204-0.178l7.557-1.646c0.629-0.138,1.021-0.251,1.171-0.341
		c0.151-0.09,0.262-0.213,0.329-0.371c0.067-0.157,0.061-0.423-0.021-0.795l0.317-0.069l0.774,3.553
		c0.256,1.17,0.141,2.074-0.344,2.713c-0.485,0.64-1.174,1.057-2.066,1.251c-0.756,0.164-1.438,0.141-2.048-0.07
		c-0.61-0.211-1.075-0.584-1.396-1.119C178.742,83.948,178.53,83.306,178.328,82.381z M184.031,81.138l-5.032,1.097
		c0.017,0.135,0.032,0.236,0.048,0.305c0.106,0.488,0.396,0.82,0.869,0.994s1.145,0.166,2.014-0.023
		c0.865-0.188,1.469-0.459,1.813-0.812c0.342-0.351,0.456-0.789,0.342-1.314L184.031,81.138z"/>
	<path fill="#7D1416" d="M174.709,91.128l-0.322,0.048l-0.632-4.317l0.321-0.046l0.04,0.273c0.036,0.239,0.125,0.423,0.269,0.552
		c0.096,0.094,0.246,0.154,0.452,0.183c0.146,0.024,0.515-0.008,1.106-0.094l7.756-1.136c0.604-0.089,0.977-0.166,1.121-0.232
		c0.145-0.067,0.264-0.177,0.355-0.329c0.094-0.153,0.123-0.345,0.09-0.576l-0.041-0.273l0.322-0.048l0.633,4.316l-0.322,0.047
		l-0.041-0.274c-0.034-0.239-0.123-0.423-0.267-0.552c-0.097-0.093-0.248-0.155-0.454-0.188c-0.146-0.024-0.515,0.007-1.105,0.094
		l-7.757,1.136c-0.604,0.089-0.977,0.166-1.121,0.235c-0.145,0.068-0.263,0.18-0.354,0.332c-0.093,0.152-0.123,0.345-0.09,0.576
		L174.709,91.128z"/>
	<path fill="#7D1416" d="M186.485,92.59l-7.096,4.608l5.112-0.348c0.713-0.049,1.189-0.153,1.432-0.313
		c0.326-0.22,0.468-0.56,0.424-1.021l0.324-0.021l0.188,2.749l-0.326,0.022c-0.088-0.348-0.186-0.579-0.297-0.692
		c-0.109-0.113-0.283-0.196-0.519-0.248s-0.634-0.059-1.196-0.021l-9.899,0.673l-0.015-0.209l9.519-6.302l-7.559,0.514
		c-0.685,0.047-1.14,0.188-1.364,0.423s-0.328,0.494-0.309,0.776l0.014,0.196l-0.323,0.022l-0.2-2.953l0.324-0.022
		c0.037,0.459,0.192,0.769,0.468,0.931c0.274,0.162,0.729,0.222,1.36,0.179l8.392-0.569l0.304-0.2
		c0.303-0.197,0.5-0.367,0.591-0.509c0.09-0.142,0.132-0.34,0.127-0.595l0.325-0.021L186.485,92.59z"/>
	<path fill="#7D1416" d="M186.082,102.031l-4.848-0.204l-0.008,0.166c-0.021,0.528,0.199,0.921,0.664,1.18
		c0.464,0.257,1.156,0.438,2.078,0.543l-0.01,0.233l-6.234-0.262l0.01-0.234c0.682-0.021,1.242-0.102,1.682-0.239
		c0.441-0.141,0.74-0.312,0.898-0.514c0.156-0.203,0.244-0.503,0.261-0.9l-3.353-0.142c-0.656-0.027-1.059-0.025-1.207,0.008
		c-0.148,0.032-0.271,0.1-0.369,0.202c-0.099,0.104-0.152,0.273-0.162,0.511l-0.021,0.499c-0.033,0.778,0.199,1.412,0.694,1.903
		s1.266,0.86,2.311,1.11l-0.01,0.228l-3.769-0.534l0.303-7.204l0.326,0.014l-0.013,0.276c-0.011,0.241,0.044,0.439,0.159,0.592
		c0.078,0.109,0.215,0.198,0.412,0.264c0.139,0.051,0.507,0.089,1.104,0.114l7.834,0.33c0.538,0.022,0.869,0.026,0.992,0.011
		c0.207-0.032,0.369-0.102,0.484-0.207c0.17-0.149,0.261-0.359,0.273-0.63l0.01-0.275l0.326,0.013l-0.295,6.977l-3.52-0.148
		l0.01-0.232c0.864-0.083,1.49-0.224,1.874-0.424c0.384-0.199,0.671-0.491,0.864-0.877c0.115-0.227,0.186-0.654,0.212-1.285
		L186.082,102.031z"/>
	<path fill="#7D1416" d="M186.169,112.631l-3.952-0.397l0.029-0.25c1.002-0.002,1.832-0.199,2.489-0.59s1.018-0.855,1.081-1.394
		c0.049-0.415-0.072-0.763-0.36-1.043s-0.64-0.442-1.053-0.491c-0.262-0.031-0.5-0.017-0.714,0.046
		c-0.287,0.084-0.58,0.242-0.877,0.472c-0.215,0.169-0.607,0.57-1.178,1.206c-0.797,0.89-1.516,1.466-2.161,1.733
		c-0.645,0.264-1.356,0.349-2.137,0.257c-0.989-0.116-1.808-0.486-2.458-1.11c-0.648-0.623-0.924-1.351-0.826-2.182
		c0.031-0.261,0.098-0.503,0.2-0.726c0.103-0.224,0.28-0.498,0.53-0.824c0.139-0.181,0.217-0.335,0.23-0.462
		c0.014-0.106-0.031-0.225-0.134-0.356c-0.103-0.133-0.269-0.249-0.499-0.35l0.026-0.227l4.47,0.526l-0.026,0.226
		c-1.278,0.032-2.278,0.264-2.999,0.698c-0.721,0.434-1.115,0.944-1.186,1.535c-0.053,0.456,0.082,0.841,0.405,1.154
		c0.323,0.312,0.72,0.496,1.191,0.553c0.28,0.032,0.557,0.012,0.831-0.061c0.273-0.073,0.54-0.202,0.801-0.386
		c0.261-0.185,0.611-0.523,1.053-1.017c0.619-0.691,1.135-1.18,1.545-1.465c0.412-0.287,0.857-0.491,1.338-0.614
		c0.48-0.124,0.998-0.152,1.55-0.087c0.942,0.111,1.718,0.447,2.324,1.011c0.606,0.563,0.866,1.213,0.779,1.95
		c-0.032,0.269-0.109,0.523-0.231,0.766c-0.094,0.184-0.25,0.401-0.471,0.654c-0.222,0.251-0.339,0.433-0.353,0.543
		c-0.013,0.105,0.024,0.195,0.11,0.267c0.086,0.073,0.304,0.155,0.651,0.251L186.169,112.631z"/>
</g>
<g>
	<circle fill="none" cx="100" cy="99.922" r="86.963"/>
	<path fill="#7D1416" d="M70.878,169.239l-1.398,2.906l-0.2-0.096c0.205-0.728,0.305-1.273,0.302-1.636s-0.089-0.69-0.256-0.985
		c-0.095-0.163-0.318-0.329-0.669-0.497l-0.56-0.27l-3.984,8.285c-0.264,0.549-0.408,0.902-0.431,1.061
		c-0.024,0.157,0.001,0.317,0.076,0.48s0.219,0.295,0.434,0.398l0.25,0.12l-0.142,0.292l-3.937-1.893l0.141-0.294l0.249,0.12
		c0.218,0.105,0.421,0.134,0.607,0.088c0.132-0.027,0.269-0.118,0.411-0.271c0.102-0.108,0.282-0.431,0.541-0.97l3.984-8.285
		l-0.543-0.261c-0.506-0.243-0.947-0.268-1.324-0.071c-0.527,0.273-1.024,0.785-1.49,1.536l-0.211-0.102l1.398-2.906L70.878,169.239
		z"/>
	<path fill="#7D1416" d="M71.906,178.683l-2.767-1.013l-0.729,0.969c-0.241,0.323-0.404,0.604-0.491,0.841
		c-0.115,0.313-0.111,0.577,0.012,0.79c0.071,0.127,0.304,0.286,0.695,0.479l-0.111,0.305l-2.605-0.953l0.112-0.305
		c0.303,0.042,0.595-0.04,0.876-0.246c0.281-0.207,0.709-0.687,1.288-1.442l6.07-7.906l0.109,0.041l-0.534,10.212
		c-0.048,0.969-0.027,1.598,0.063,1.886c0.068,0.219,0.217,0.385,0.446,0.5l-0.112,0.306l-3.79-1.387l0.111-0.306l0.156,0.058
		c0.304,0.11,0.541,0.128,0.708,0.052c0.117-0.056,0.206-0.168,0.266-0.333c0.036-0.099,0.062-0.204,0.077-0.317
		c0.011-0.052,0.028-0.279,0.053-0.683L71.906,178.683z M71.934,178l0.243-4.281l-2.612,3.414L71.934,178z"/>
	<path fill="#7D1416" d="M86.385,173.58l-0.967,4.088l-0.221-0.053c-0.003-1.181-0.203-2.125-0.601-2.833s-0.914-1.138-1.548-1.287
		c-0.607-0.144-1.169-0.02-1.688,0.372c-0.518,0.394-0.964,1.006-1.338,1.839c-0.374,0.832-0.669,1.708-0.887,2.626
		c-0.263,1.111-0.402,2.107-0.417,2.989c-0.015,0.883,0.136,1.568,0.453,2.058c0.316,0.491,0.755,0.803,1.318,0.937
		c0.196,0.046,0.403,0.063,0.624,0.052c0.22-0.011,0.45-0.048,0.693-0.111l0.57-2.412c0.108-0.456,0.156-0.757,0.144-0.901
		s-0.074-0.286-0.187-0.428c-0.112-0.141-0.266-0.234-0.461-0.281l-0.209-0.049l0.075-0.316l3.946,0.933l-0.075,0.316
		c-0.306-0.042-0.528-0.032-0.667,0.027c-0.139,0.062-0.265,0.187-0.377,0.376c-0.062,0.1-0.143,0.361-0.242,0.783l-0.57,2.412
		c-0.597,0.208-1.196,0.33-1.796,0.365c-0.601,0.036-1.202-0.019-1.805-0.16c-0.771-0.182-1.375-0.483-1.813-0.903
		s-0.794-0.919-1.068-1.499c-0.274-0.579-0.449-1.2-0.524-1.862c-0.093-0.853-0.024-1.767,0.206-2.742
		c0.413-1.745,1.19-3.117,2.333-4.117c1.143-1,2.364-1.347,3.666-1.039c0.403,0.096,0.755,0.228,1.057,0.396
		c0.165,0.087,0.418,0.284,0.761,0.591s0.55,0.469,0.622,0.485c0.112,0.026,0.229-0.008,0.353-0.102
		c0.124-0.095,0.263-0.294,0.42-0.601L86.385,173.58z"/>
	<path fill="#7D1416" d="M87.092,174.006l4.279,0.49l-0.037,0.324l-0.214-0.025c-0.322-0.037-0.548-0.014-0.68,0.068
		c-0.131,0.082-0.232,0.205-0.302,0.368c-0.071,0.162-0.145,0.582-0.222,1.257l-0.665,5.798c-0.121,1.061-0.146,1.768-0.073,2.123
		c0.073,0.357,0.225,0.663,0.456,0.92c0.23,0.256,0.541,0.407,0.933,0.452c0.448,0.051,0.847-0.05,1.195-0.301
		c0.349-0.252,0.631-0.622,0.846-1.11c0.215-0.489,0.395-1.362,0.539-2.62l0.554-4.828c0.061-0.529,0.065-0.912,0.014-1.148
		c-0.051-0.235-0.131-0.404-0.239-0.505c-0.168-0.154-0.419-0.251-0.753-0.29l0.038-0.323l2.867,0.329l-0.037,0.322l-0.172-0.02
		c-0.232-0.026-0.434,0.019-0.603,0.135c-0.17,0.116-0.306,0.304-0.405,0.564c-0.075,0.18-0.14,0.511-0.195,0.995l-0.516,4.496
		c-0.159,1.392-0.338,2.389-0.538,2.99c-0.199,0.603-0.577,1.135-1.133,1.596s-1.265,0.642-2.125,0.544
		c-0.717-0.083-1.255-0.282-1.615-0.602c-0.491-0.433-0.813-0.954-0.967-1.562s-0.174-1.402-0.061-2.387l0.665-5.798
		c0.078-0.681,0.1-1.108,0.066-1.279c-0.034-0.172-0.11-0.315-0.229-0.429c-0.119-0.114-0.354-0.188-0.705-0.223L87.092,174.006z"/>
	<path fill="#7D1416" d="M99.621,186.601l-0.009,0.325l-4.36-0.124l0.009-0.324l0.277,0.008c0.242,0.007,0.438-0.049,0.59-0.168
		c0.108-0.079,0.195-0.218,0.258-0.415c0.049-0.139,0.082-0.507,0.099-1.104l0.223-7.838c0.018-0.608,0.006-0.99-0.035-1.144
		c-0.041-0.153-0.128-0.289-0.263-0.407c-0.134-0.118-0.317-0.181-0.551-0.188l-0.277-0.008l0.009-0.325l4.36,0.125l-0.009,0.325
		l-0.277-0.009c-0.242-0.007-0.438,0.05-0.589,0.169c-0.109,0.078-0.197,0.217-0.264,0.414c-0.049,0.139-0.082,0.507-0.099,1.104
		l-0.223,7.837c-0.018,0.609-0.004,0.991,0.038,1.144c0.042,0.154,0.131,0.29,0.266,0.408c0.134,0.119,0.318,0.181,0.551,0.188
		L99.621,186.601z"/>
	<path fill="#7D1416" d="M108.396,174.338l0.256,4.193l-0.228,0.014c-0.344-1.13-0.809-1.977-1.394-2.539
		c-0.586-0.563-1.203-0.825-1.854-0.785c-0.623,0.038-1.125,0.319-1.508,0.845c-0.384,0.525-0.634,1.241-0.751,2.146
		c-0.117,0.906-0.147,1.829-0.09,2.771c0.069,1.142,0.226,2.135,0.466,2.983c0.241,0.849,0.584,1.461,1.027,1.839
		c0.445,0.378,0.955,0.55,1.533,0.514c0.199-0.012,0.404-0.055,0.611-0.129s0.417-0.177,0.631-0.307l-0.15-2.475
		c-0.029-0.469-0.07-0.769-0.123-0.903c-0.054-0.136-0.154-0.253-0.303-0.356c-0.147-0.103-0.322-0.147-0.523-0.135l-0.215,0.013
		l-0.02-0.324l4.047-0.248l0.02,0.325c-0.305,0.048-0.516,0.121-0.631,0.219c-0.115,0.099-0.198,0.255-0.251,0.469
		c-0.03,0.113-0.032,0.387-0.005,0.819l0.15,2.475c-0.512,0.371-1.05,0.66-1.614,0.868s-1.156,0.33-1.774,0.368
		c-0.79,0.049-1.455-0.064-1.996-0.34s-1.025-0.65-1.455-1.126c-0.43-0.477-0.777-1.02-1.041-1.632
		c-0.335-0.79-0.533-1.685-0.595-2.685c-0.108-1.79,0.239-3.328,1.044-4.616s1.874-1.973,3.209-2.054
		c0.413-0.025,0.789-0.002,1.126,0.071c0.183,0.037,0.483,0.151,0.899,0.346c0.417,0.195,0.662,0.29,0.735,0.286
		c0.114-0.007,0.218-0.074,0.309-0.199c0.091-0.127,0.167-0.358,0.229-0.696L108.396,174.338z"/>
	<path fill="#7D1416" d="M118.549,172.423l2.289,9.475c0.172,0.711,0.305,1.16,0.396,1.346c0.091,0.187,0.222,0.325,0.392,0.416
		c0.17,0.092,0.408,0.101,0.715,0.026l0.186-0.045l0.077,0.316l-4.271,1.032l-0.076-0.316l0.215-0.053
		c0.348-0.083,0.581-0.199,0.701-0.35c0.119-0.148,0.182-0.33,0.186-0.542c0.003-0.212-0.083-0.682-0.26-1.411l-1.451-6.006
		c-0.129-0.535-0.229-0.865-0.296-0.991c-0.069-0.124-0.163-0.223-0.283-0.293s-0.245-0.09-0.372-0.06
		c-0.203,0.049-0.429,0.2-0.676,0.452l-0.182-0.281l2.514-2.668L118.549,172.423z"/>
	<path fill="#7D1416" d="M124.445,183.714l-0.076-0.234c0.578-0.423,1.025-0.914,1.342-1.473c0.314-0.56,0.506-1.187,0.57-1.879
		s0.021-1.452-0.132-2.277c-0.184,0.258-0.349,0.448-0.495,0.573c-0.147,0.125-0.314,0.218-0.502,0.278
		c-0.6,0.197-1.201,0.052-1.803-0.438c-0.602-0.487-1.078-1.269-1.43-2.343c-0.243-0.747-0.357-1.467-0.344-2.158
		c0.013-0.691,0.164-1.274,0.454-1.748s0.651-0.781,1.084-0.923c0.464-0.151,0.964-0.104,1.501,0.14
		c0.537,0.243,1.046,0.685,1.526,1.323c0.48,0.638,0.87,1.417,1.171,2.335c0.389,1.192,0.563,2.399,0.52,3.621
		c-0.044,1.223-0.354,2.293-0.93,3.211C126.326,182.642,125.508,183.306,124.445,183.714z M126.008,177.119
		c-0.165-0.636-0.324-1.19-0.479-1.665c-0.332-1.013-0.722-1.93-1.172-2.751c-0.251-0.454-0.506-0.766-0.764-0.935
		c-0.138-0.09-0.284-0.11-0.44-0.06c-0.194,0.064-0.308,0.233-0.339,0.509c-0.045,0.378,0.084,1.029,0.386,1.954
		c0.504,1.543,0.98,2.565,1.429,3.066c0.291,0.323,0.579,0.438,0.863,0.346C125.645,177.534,125.816,177.38,126.008,177.119z"/>
	<path fill="#7D1416" d="M130.898,181.553l-0.095-0.227c0.544-0.468,0.95-0.991,1.222-1.574c0.271-0.582,0.411-1.222,0.422-1.918
		c0.01-0.695-0.094-1.448-0.312-2.259c-0.162,0.27-0.312,0.474-0.448,0.61c-0.137,0.135-0.297,0.241-0.479,0.317
		c-0.582,0.242-1.193,0.144-1.831-0.295c-0.638-0.439-1.175-1.181-1.608-2.226c-0.302-0.724-0.473-1.433-0.514-2.122
		c-0.041-0.691,0.064-1.284,0.316-1.779s0.588-0.83,1.008-1.004c0.451-0.188,0.953-0.182,1.508,0.02
		c0.555,0.2,1.096,0.601,1.625,1.2c0.529,0.598,0.979,1.343,1.35,2.235c0.482,1.158,0.75,2.349,0.803,3.57s-0.172,2.313-0.674,3.273
		C132.689,180.337,131.925,181.063,130.898,181.553z M131.938,174.857c-0.214-0.621-0.417-1.163-0.607-1.623
		c-0.41-0.984-0.871-1.868-1.384-2.651c-0.286-0.433-0.565-0.723-0.835-0.871c-0.145-0.079-0.292-0.087-0.443-0.024
		c-0.189,0.079-0.289,0.257-0.299,0.533c-0.015,0.381,0.165,1.021,0.539,1.918c0.623,1.498,1.178,2.48,1.664,2.944
		c0.316,0.3,0.611,0.393,0.889,0.277C131.608,175.299,131.768,175.131,131.938,174.857z"/>
	<path fill="#7D1416" d="M141.338,176.482l-4.373,2.234l-0.088-0.173c0.176-2.964,0.205-4.915,0.09-5.849
		c-0.117-0.935-0.366-1.777-0.75-2.528c-0.28-0.549-0.632-0.942-1.055-1.184c-0.422-0.241-0.806-0.274-1.148-0.1
		c-0.563,0.288-0.795,0.913-0.693,1.875l-0.256,0.001c-0.314-1.102-0.393-1.996-0.236-2.682c0.156-0.685,0.497-1.162,1.023-1.431
		c0.375-0.192,0.783-0.242,1.222-0.151c0.438,0.092,0.856,0.312,1.255,0.658c0.398,0.346,0.693,0.709,0.889,1.09
		c0.354,0.693,0.58,1.467,0.674,2.32c0.125,1.153,0.008,2.912-0.352,5.272l1.605-0.82c0.395-0.201,0.639-0.355,0.733-0.463
		c0.095-0.108,0.151-0.237,0.171-0.389s0-0.439-0.061-0.862l0.197-0.102L141.338,176.482z"/>
</g>
</svg>
